<?xml version="1.0" encoding="UTF-8"?>
<svg version="1.1" xmlns="http://www.w3.org/2000/svg" width="891" height="493">
<path d="M0 0 C11.03022621 6.38592044 15.95728344 16.38070523 21.35253906 27.46777344 C24.74784554 34.42377382 28.1733013 40.56797542 33.375 46.375 C34.24511719 47.35210937 35.11523438 48.32921875 36.01171875 49.3359375 C40.97159096 54.84349425 46.07501247 60.19278997 51.375 65.375 C52.179375 65.045 52.98375 64.715 53.8125 64.375 C60.7283242 62.43371602 66.13758189 62.74461719 72.55078125 66.01171875 C74.375 67.375 74.375 67.375 76.1015625 69.97998047 C78.15812234 72.68025232 78.15812234 72.68025232 81.2565918 72.60717773 C82.35140869 72.42614502 83.44622559 72.2451123 84.57421875 72.05859375 C86.38889648 71.77725586 86.38889648 71.77725586 88.24023438 71.49023438 C89.50158203 71.26658203 90.76292969 71.04292969 92.0625 70.8125 C93.30451172 70.61591797 94.54652344 70.41933594 95.82617188 70.21679688 C102.39788122 69.1545969 108.89530612 67.89839498 115.375 66.375 C110.45651807 59.66816206 104.98778521 53.62333779 99.26318359 47.60522461 C96.44933539 44.63960008 93.7153752 41.74140926 91.375 38.375 C90.611875 38.684375 89.84875 38.99375 89.0625 39.3125 C82.93052197 41.73677039 77.52823737 42.42607912 71.1875 40.3125 C66.71873545 37.23401775 63.10775169 33.57325506 61.375 28.375 C60.60004676 21.93399524 61.47003294 16.65327352 65.375 11.375 C71.20465711 6.73506883 76.12346877 5.71463719 83.375 6.375 C88.81689799 8.188966 92.1533325 11.75762638 95.375 16.375 C96.28825295 19.11475885 96.5380353 20.85448781 96.5625 23.6875 C96.57667969 24.42613281 96.59085938 25.16476563 96.60546875 25.92578125 C96.32156852 28.94282267 95.41097902 31.53731834 94.375 34.375 C112.82917358 45.79312356 112.82917358 45.79312356 133.375 51.375 C135.5055335 50.75639491 135.5055335 50.75639491 137.25 49.5625 C146.67568163 44.35404495 158.34098698 43.80990662 168.6875 46.5 C177.46119911 49.57150568 183.08019116 55.22828448 187.375 63.375 C191.97668253 74.42982327 193.22631154 85.60985361 188.62890625 96.87109375 C183.64156268 106.830244 174.57863374 111.80918741 164.41430664 115.40454102 C159.40865217 117.00286028 154.3140373 118.1143948 149.1875 119.25 C133.31545648 122.96309906 120.19945002 128.05569394 106.20214844 136.50048828 C105.34395508 137.01466309 104.48576172 137.52883789 103.6015625 138.05859375 C102.83408691 138.52837646 102.06661133 138.99815918 101.27587891 139.48217773 C100.64858887 139.77680908 100.02129883 140.07144043 99.375 140.375 C98.715 140.045 98.055 139.715 97.375 139.375 C100.037342 136.68318725 102.70566667 133.99737853 105.375 131.3125 C106.11878906 130.56033203 106.86257813 129.80816406 107.62890625 129.03320312 C111.83395605 124.8098705 116.11299428 120.75261831 120.6484375 116.88500977 C122.2971191 115.44311275 123.84546322 113.94177819 125.375 112.375 C118.66121874 117.24433586 112.16866621 122.28531153 105.875 127.6875 C105.28831543 128.19055664 104.70163086 128.69361328 104.09716797 129.21191406 C101.07328825 131.82975738 98.16094952 134.50028248 95.375 137.375 C95.5915625 137.94347656 95.808125 138.51195312 96.03125 139.09765625 C98.38257081 145.61821721 99.68741661 150.92461136 96.75 157.5 C94.5308685 161.5241293 92.21560768 163.84019893 88.375 166.375 C86.38558014 166.76656063 84.38506925 167.10904376 82.375 167.375 C83.43669422 189.07372489 83.43669422 189.07372489 94.1953125 206.9296875 C94.87335938 207.48914063 95.55140625 208.04859375 96.25 208.625 C103.29617946 214.5537816 107.88374365 222.91405727 108.7109375 232.109375 C108.9859928 244.19685975 106.67786478 252.71164327 98.79296875 262.10546875 C91.15638174 269.27325074 81.68957156 271.78607913 71.4765625 271.6484375 C60.42306148 270.67394749 51.58601404 266.43076827 44.375 258.05078125 C38.67906822 250.49180512 36.38884999 243.76917001 36.17919922 234.32299805 C35.81167462 219.41838577 29.23636293 209.41487379 19.375 198.375 C18.32119141 197.15876953 18.32119141 197.15876953 17.24609375 195.91796875 C15.63455086 194.05899705 14.01175931 192.21174919 12.375 190.375 C11.67117188 190.53355469 10.96734375 190.69210938 10.2421875 190.85546875 C4.11245023 191.96617046 -2.93889184 192.71613002 -8.625 189.75 C-12.70695989 186.51844842 -14.98281089 183.30156734 -16.625 178.375 C-23.40157923 178.70827439 -29.70248906 179.99870074 -36.25 181.6875 C-37.04897705 181.88819092 -37.8479541 182.08888184 -38.67114258 182.2956543 C-45.86415554 184.20978632 -52.84660104 186.23763575 -57.0625 192.75 C-62.65017081 200.40158525 -69.36455625 204.00443585 -78.578125 205.96875 C-89.2171752 207.38729003 -98.70127243 204.39993393 -107.375 198.25 C-114.53651898 192.31798074 -118.56800822 184.56915071 -119.625 175.375 C-120.47228674 164.86864446 -117.36155705 155.47471918 -110.625 147.375 C-107.12335157 143.68861232 -103.45957109 141.22818847 -98.9375 138.9375 C-94.57053962 136.591184 -92.46889508 133.94994722 -90.625 129.375 C-90.28984375 128.59382812 -89.9546875 127.81265625 -89.609375 127.0078125 C-86.56264898 119.34552393 -85.07513853 111.46660136 -83.625 103.375 C-83.41746094 102.25222656 -83.20992187 101.12945312 -82.99609375 99.97265625 C-82.53026746 97.44155818 -82.07285423 94.90932803 -81.625 92.375 C-82.65625 92.313125 -83.6875 92.25125 -84.75 92.1875 C-89.42809919 91.20660824 -91.33671732 89.81275007 -94.625 86.375 C-97.37776297 81.51178541 -98.57580607 76.92136872 -97.625 71.375 C-95.86849374 66.19047345 -93.4804484 62.11938388 -88.625 59.375 C-82.66587565 57.27362457 -77.60125592 56.83917541 -71.671875 59.18359375 C-67.20623398 61.78286953 -64.24582888 65.51251335 -62.625 70.375 C-61.89075261 77.26007392 -62.48438784 81.77957816 -66.625 87.375 C-69.82049115 90.48855548 -72.18290165 91.86733162 -76.625 92.375 C-76.295 93.035 -75.965 93.695 -75.625 94.375 C-75.3582008 96.15214163 -75.13782621 97.93636585 -74.94140625 99.72265625 C-74.81830078 100.80353516 -74.69519531 101.88441406 -74.56835938 102.99804688 C-74.31749159 105.26357595 -74.06747027 107.52919894 -73.81835938 109.79492188 C-73.09754811 116.11042372 -72.13470422 122.19893728 -70.625 128.375 C-67.10955287 129.60304487 -65.6698082 129.39212224 -62.12890625 128.0390625 C-60.8066704 127.37593102 -59.49317147 126.69517842 -58.1875 126 C-57.49462891 125.64292969 -56.80175781 125.28585938 -56.08789062 124.91796875 C-48.98318058 121.18136965 -42.27322512 116.86255196 -35.625 112.375 C-35.73199219 111.58996094 -35.83898437 110.80492188 -35.94921875 109.99609375 C-36.69618106 103.45013369 -37.1084693 99.06466652 -33.625 93.375 C-30.96873196 90.31007534 -28.52140005 87.67380002 -24.625 86.375 C-22.62518856 86.34753692 -20.62477606 86.34507138 -18.625 86.375 C-18.5506161 81.90929551 -18.49628829 77.44392316 -18.46020508 72.9777832 C-18.44515647 71.45981562 -18.42471262 69.94189124 -18.39868164 68.42407227 C-18.36212347 66.23703323 -18.34523477 64.05057104 -18.33203125 61.86328125 C-18.3163208 60.54884033 -18.30061035 59.23439941 -18.28442383 57.88012695 C-18.70387471 53.56324071 -19.92883689 50.82474716 -23.23828125 47.99609375 C-24.07939453 47.41021484 -24.07939453 47.41021484 -24.9375 46.8125 C-30.54323566 42.25412047 -34.35094434 34.46724315 -35.625 27.375 C-36.34373751 18.59810927 -35.32383489 11.46180712 -30.4375 4.0625 C-21.79878523 -4.19227189 -10.79499654 -4.9823061 0 0 Z M-4.625 55.375 C-6.62712413 59.420726 -7.9388543 63.56610977 -9.12866211 67.90209961 C-9.68941813 69.94448622 -10.29232613 71.97048019 -10.90429688 73.99804688 C-13.22433424 80.64420999 -13.22433424 80.64420999 -12.625 87.375 C-11.696875 87.973125 -10.76875 88.57125 -9.8125 89.1875 C-6.10640655 91.73089747 -4.52365174 93.28559625 -2.625 97.375 C-1.87118465 102.9747712 -1.85196425 107.70999991 -4.25 112.875 C-7.78171737 116.59259723 -10.2270098 119.14677305 -15.5390625 119.65234375 C-20.08817398 119.70215154 -24.22493846 119.5447782 -28.625 118.375 C-30.85338985 122.9259532 -33.07691701 127.47923886 -35.29614258 132.03466797 C-36.05037277 133.58120287 -36.8058839 135.1271138 -37.56274414 136.67236328 C-38.65595695 138.90490993 -39.74440789 141.13972602 -40.83203125 143.375 C-41.16652786 144.05554443 -41.50102448 144.73608887 -41.84565735 145.43725586 C-46.56792158 154.96231363 -46.56792158 154.96231363 -47.625 165.375 C-32.41124239 170.17127912 -32.41124239 170.17127912 -16.625 171.375 C-16.33367187 170.77171875 -16.04234375 170.1684375 -15.7421875 169.546875 C-13.12239999 164.43911318 -11.1383959 160.63943046 -5.625 158.375 C-0.0822079 157.70336065 6.08658861 157.0139958 11 160.125 C14.94165286 163.85919744 17.28482188 166.68047786 17.47265625 172.29296875 C17.46105469 173.37191406 17.44945312 174.45085937 17.4375 175.5625 C17.42847656 176.64917969 17.41945313 177.73585938 17.41015625 178.85546875 C17.39855469 179.68691406 17.38695312 180.51835937 17.375 181.375 C25.70648566 185.5912027 34.06207529 189.7502952 42.5 193.75 C43.19730225 194.08322266 43.89460449 194.41644531 44.61303711 194.75976562 C50.96667743 197.75188247 56.22159663 199.66113613 63.375 199.375 C69.27367095 190.06263011 73.375 176.47032672 73.375 165.375 C72.446875 164.776875 71.51875 164.17875 70.5625 163.5625 C66.82086481 160.99471114 65.7812427 159.67185271 64.375 155.375 C63.74489548 150.22525685 63.56867749 145.19364952 65.875 140.4375 C69.35937923 136.16913545 72.96024126 133.88017966 78.4609375 133.06640625 C82.81144043 132.9247232 86.32509989 133.9408994 90.375 135.375 C109.86278635 111.37519423 109.86278635 111.37519423 118.375 82.375 C105.33133127 80.43747892 92.54953123 80.13603125 79.375 80.375 C79.19904297 81.05554443 79.02308594 81.73608887 78.84179688 82.43725586 C78.59494141 83.33323486 78.34808594 84.22921387 78.09375 85.15234375 C77.85591797 86.03913818 77.61808594 86.92593262 77.37304688 87.83959961 C75.79969103 91.83649308 72.97588934 94.15717952 69.375 96.375 C64.2078841 98.09737197 59.26900242 98.03061622 54.125 96.25 C49.9453011 93.4002053 47.00635676 90.26907029 45.375 85.375 C45.28229714 83.91901978 45.24502075 82.45891995 45.25 81 C45.24613281 79.87464844 45.24613281 79.87464844 45.2421875 78.7265625 C45.38487258 76.20019729 45.82574862 73.84227208 46.375 71.375 C38.33138082 65.72402688 30.13226368 60.46255057 21.5 55.75 C20.72873779 55.31252441 19.95747559 54.87504883 19.1628418 54.42431641 C11.70313097 50.45443068 1.94243201 48.75010072 -4.625 55.375 Z M129.375 108.375 C129.045 109.035 128.715 109.695 128.375 110.375 C129.365 110.045 130.355 109.715 131.375 109.375 C130.715 109.045 130.055 108.715 129.375 108.375 Z M-31.625 116.375 C-45.75574549 129.97812946 -45.75574549 129.97812946 -58.59375 144.765625 C-61.1988352 148.11215752 -63.93894881 151.33355176 -66.6875 154.5625 C-67.17806885 155.14056396 -67.6686377 155.71862793 -68.17407227 156.31420898 C-69.32348992 157.66856317 -70.4741096 159.02189708 -71.625 160.375 C-71.295 161.035 -70.965 161.695 -70.625 162.375 C-64.64577472 156.48413766 -58.71014485 150.63036434 -53.265625 144.234375 C-50.84018995 141.4855486 -48.21277468 138.95369708 -45.6015625 136.3828125 C-43.04065271 133.78141402 -40.67422065 131.03736572 -38.30078125 128.265625 C-36.66684913 126.4222144 -34.95958978 124.70983838 -33.1875 123 C-30.39215443 120.74787237 -30.39215443 120.74787237 -30.625 118.375 C-29.965 118.045 -29.305 117.715 -28.625 117.375 C-29.615 117.045 -30.605 116.715 -31.625 116.375 Z " fill="#828A94" transform="translate(699.625,7.625)"/>
<path d="M0 0 C15.51 0 31.02 0 47 0 C49.70518526 5.41037052 52.22611501 10.73086552 54.51171875 16.30859375 C54.99930161 17.48804062 54.99930161 17.48804062 55.49673462 18.6913147 C56.56301872 21.27227306 57.62521343 23.85489407 58.6875 26.4375 C59.44588963 28.27478952 60.20460344 30.11194526 60.96362305 31.94897461 C62.53660526 35.75679493 64.10820318 39.5651819 65.67871094 43.37402344 C68.86919008 51.1095523 72.07293958 58.83957047 75.27838135 66.56890869 C75.97229742 68.2421626 76.66610298 69.91546235 77.35980225 71.58880615 C85.25457332 90.63256664 93.18520312 109.66135941 101.1186676 128.68902588 C104.22550275 136.14086827 107.32999421 143.5936845 110.43359375 151.046875 C111.77442514 154.26643673 113.11528301 157.48598742 114.45614624 160.70553589 C115.30198738 162.73667585 116.14771561 164.76786285 116.99331665 166.79910278 C117.79130719 168.7159196 118.58949542 170.63265412 119.38789368 172.54930115 C120.15093629 174.38137695 120.91339272 176.21369702 121.67521667 178.04627991 C123.54579432 182.53980946 125.43395251 187.02471386 127.35351562 191.49755859 C127.72792786 192.37369308 128.10234009 193.24982758 128.48809814 194.1525116 C129.19634903 195.80724845 129.90895918 197.46012869 130.62664795 199.11079407 C133 204.66547786 133 204.66547786 133 208 C116.83 208 100.66 208 84 208 C81.545625 202.121875 79.09125 196.24375 76.5625 190.1875 C75.78849854 188.33535889 75.01449707 186.48321777 74.21704102 184.57495117 C73.60424468 183.10599238 72.99152767 181.63700049 72.37890625 180.16796875 C72.06014526 179.40601196 71.74138428 178.64405518 71.41296387 177.85900879 C70.19060061 174.92562814 69.00532676 172.01598027 68 169 C36.32 168.505 36.32 168.505 4 168 C7.375 155.625 7.375 155.625 9.48046875 149.58203125 C10.07831177 147.85690308 10.07831177 147.85690308 10.68823242 146.09692383 C11.18299072 144.68306396 11.67774902 143.2692041 12.1875 141.8125 C13.775625 137.254375 15.36375 132.69625 17 128 C28.22 127.67 39.44 127.34 51 127 C49.48148438 123.27589844 47.96296875 119.55179687 46.3984375 115.71484375 C45.16988991 112.701078 43.94144136 109.68727191 42.71305847 106.67343903 C41.42631004 103.51648261 40.13939689 100.3595936 38.85205078 97.20288086 C27.91364335 70.37875319 27.91364335 70.37875319 23 58 C20.96573596 60.03426404 20.36321602 61.22598364 19.32409668 63.84797668 C19.00237991 64.65235168 18.68066315 65.45672668 18.34919739 66.28547668 C18.00128647 67.17071518 17.65337555 68.05595367 17.29492188 68.96801758 C16.9236467 69.90064423 16.55237152 70.83327087 16.16984558 71.79415894 C14.93123991 74.90902549 13.70004234 78.0267673 12.46875 81.14453125 C11.5959691 83.3433413 10.72271014 85.54196164 9.84899902 87.74040222 C7.53005644 93.57888155 5.21725917 99.4197761 2.90582275 105.26123047 C0.62669972 111.01855667 -1.6573717 116.77391778 -3.94140625 122.52929688 C-6.63855341 129.32613553 -9.33545885 136.12306829 -12.0300293 142.92092896 C-20.6380948 164.63350549 -29.3148425 186.31812467 -38 208 C-53.84 208 -69.68 208 -86 208 C-82.62478662 197.87435985 -82.62478662 197.87435985 -81.20092773 194.43798828 C-80.71672867 193.2631488 -80.71672867 193.2631488 -80.2227478 192.0645752 C-79.87982697 191.24146851 -79.53690613 190.41836182 -79.18359375 189.5703125 C-78.63126572 188.23438049 -78.63126572 188.23438049 -78.06777954 186.87145996 C-76.86079756 183.95467335 -75.64925914 181.03980485 -74.4375 178.125 C-73.58177123 176.06045815 -72.72622409 173.99584101 -71.87084961 171.93115234 C-65.19349975 155.82543027 -58.46596864 139.74071459 -51.72370911 123.66207886 C-46.46310588 111.1160994 -41.22888414 98.55922746 -36 86 C-29.43063982 70.22330554 -22.84951402 54.45160632 -16.25 38.6875 C-15.88745117 37.82133057 -15.52490234 36.95516113 -15.15136719 36.06274414 C-14.10639691 33.56645286 -13.06108864 31.07030344 -12.015625 28.57421875 C-11.72673401 27.88422287 -11.43784302 27.19422699 -11.14019775 26.48332214 C-7.43902653 17.65038649 -3.71644483 8.82655648 0 0 Z " fill="#132740" transform="translate(86,282)"/>
<path d="M0 0 C15.51 0 31.02 0 47 0 C51.49948788 8.99897576 51.49948788 8.99897576 52.88085938 12.36914062 C53.1972084 13.13650543 53.51355743 13.90387024 53.8394928 14.69448853 C54.17089767 15.50686981 54.50230255 16.3192511 54.84375 17.15625 C55.2050853 18.03461517 55.56642059 18.91298035 55.93870544 19.81796265 C56.71927623 21.71614936 57.49852548 23.61487995 58.27658081 25.51409912 C60.39802055 30.69172657 62.52988967 35.86506204 64.66015625 41.0390625 C65.10162491 42.11205597 65.54309357 43.18504944 65.99794006 44.29055786 C70.61164444 55.49906688 75.27084478 66.68845538 79.9375 77.875 C80.7734505 79.87955187 81.60938794 81.88410919 82.4453125 83.88867188 C84.12455455 87.91515704 85.8041359 91.94150049 87.48388672 95.96777344 C91.24415151 104.9816898 94.9997315 113.99755809 98.75567627 123.01327515 C99.99112972 125.97870885 101.22673699 128.94407841 102.46240234 131.90942383 C106.37116467 141.28970894 110.27934613 150.67023517 114.1859436 160.05142212 C116.03304285 164.48691198 117.88040281 168.92229324 119.7277832 173.35766602 C120.60909866 175.47382258 121.4902861 177.59003247 122.37133789 179.70629883 C123.59228741 182.63896938 124.81367633 185.57145658 126.03515625 188.50390625 C126.39360123 189.36520645 126.7520462 190.22650665 127.12135315 191.11390686 C127.45779343 191.92137863 127.7942337 192.7288504 128.14086914 193.56079102 C128.45500763 194.31699738 128.76914612 195.07320374 129.09280396 195.85232544 C129.68465288 197.25345466 130.2904194 198.64880971 130.91183472 200.03707886 C132.18814488 202.8904542 133 204.83201942 133 208 C116.83 208 100.66 208 84 208 C81.545625 202.121875 79.09125 196.24375 76.5625 190.1875 C75.78849854 188.33535889 75.01449707 186.48321777 74.21704102 184.57495117 C73.60424468 183.10599238 72.99152767 181.63700049 72.37890625 180.16796875 C72.06014526 179.40601196 71.74138428 178.64405518 71.41296387 177.85900879 C70.19060061 174.92562814 69.00532676 172.01598027 68 169 C36.32 168.505 36.32 168.505 4 168 C7.375 155.625 7.375 155.625 9.48046875 149.58203125 C10.07831177 147.85690308 10.07831177 147.85690308 10.68823242 146.09692383 C11.18299072 144.68306396 11.67774902 143.2692041 12.1875 141.8125 C13.775625 137.254375 15.36375 132.69625 17 128 C28.22 127.67 39.44 127.34 51 127 C49.6490625 123.69484375 48.298125 120.3896875 46.90625 116.984375 C45.56883522 113.71084627 44.23167198 110.4372149 42.89453125 107.16357422 C41.97942827 104.92355848 41.06407214 102.68364613 40.1484375 100.44384766 C34.37430029 86.31873788 28.642557 72.17822138 23 58 C20.91926828 60.08073172 20.30318638 61.3768397 19.23471069 64.07144165 C18.8932753 64.92511322 18.5518399 65.77878479 18.20005798 66.6583252 C17.8303035 67.59817261 17.46054901 68.53802002 17.07958984 69.50634766 C16.68559494 70.49577362 16.29160004 71.48519958 15.88566589 72.50460815 C14.57251325 75.8058322 13.26676376 79.10993432 11.9609375 82.4140625 C11.038522 84.73695088 10.11563178 87.05965079 9.19229126 89.38217163 C6.99412135 94.91451012 4.80052429 100.44864 2.60918009 105.98368394 C-0.05848368 112.72123727 -2.7322198 119.45637741 -5.40625 126.19140625 C-8.24342129 133.33798296 -11.08026582 140.48468748 -13.91461182 147.63238525 C-21.90155347 167.77167913 -29.94221912 187.88892321 -38 208 C-53.84 208 -69.68 208 -86 208 C-82.62478662 197.87435985 -82.62478662 197.87435985 -81.20092773 194.43798828 C-80.71672867 193.2631488 -80.71672867 193.2631488 -80.2227478 192.0645752 C-79.87982697 191.24146851 -79.53690613 190.41836182 -79.18359375 189.5703125 C-78.63126572 188.23438049 -78.63126572 188.23438049 -78.06777954 186.87145996 C-76.86079756 183.95467335 -75.64925914 181.03980485 -74.4375 178.125 C-73.58177123 176.06045815 -72.72622409 173.99584101 -71.87084961 171.93115234 C-65.19349975 155.82543027 -58.46596864 139.74071459 -51.72370911 123.66207886 C-46.46310588 111.1160994 -41.22888414 98.55922746 -36 86 C-29.43063982 70.22330554 -22.84951402 54.45160632 -16.25 38.6875 C-15.88745117 37.82133057 -15.52490234 36.95516113 -15.15136719 36.06274414 C-14.10639691 33.56645286 -13.06108864 31.07030344 -12.015625 28.57421875 C-11.72673401 27.88422287 -11.43784302 27.19422699 -11.14019775 26.48332214 C-7.43902653 17.65038649 -3.71644483 8.82655648 0 0 Z " fill="#132740" transform="translate(652,282)"/>
<path d="M0 0 C-1.5291621 4.40465169 -3.88449157 8.05591694 -6.5 11.875 C-7.39337019 13.19651926 -8.28659477 14.51813696 -9.1796875 15.83984375 C-9.64084961 16.51901855 -10.10201172 17.19819336 -10.57714844 17.89794922 C-12.9462376 21.3979248 -15.28415068 24.91860386 -17.625 28.4375 C-18.47121036 29.70712711 -19.31755105 30.97666737 -20.1640625 32.24609375 C-20.76992188 33.15488281 -21.37578125 34.06367188 -22 35 C-25.12830859 33.54064016 -28.00407931 31.76433434 -30.9230957 29.92797852 C-48.66708891 18.86520978 -67.20862494 13.25296018 -88.23828125 16.5 C-93.52453576 17.91180697 -97.39629123 19.85573492 -101 24 C-103.14159728 29.00024722 -103.5322266 33.90009331 -101.87109375 39.08984375 C-98.22840357 47.07762625 -91.89336763 49.99922028 -84 53 C-79.02829418 54.58407502 -73.9729361 55.87792169 -68.92501831 57.19345093 C-43.56309477 63.83901857 -16.73085068 71.1620932 -1.46484375 94.40234375 C7.60621246 110.4883501 7.85034666 129.54521376 3 147 C-2.17955588 161.91386754 -12.70800874 172.93844077 -26.69921875 179.87890625 C-28.04592147 180.51024932 -29.39621453 181.13399093 -30.75 181.75 C-31.35658447 182.03190186 -31.96316895 182.31380371 -32.58813477 182.60424805 C-43.99121161 187.52106334 -55.90633171 188.50804791 -68.1875 188.375 C-68.86120636 188.37067963 -69.53491272 188.36635925 -70.22903442 188.36190796 C-102.61268473 188.11940008 -134.07126796 178.35166015 -157.78125 155.265625 C-158.1834375 154.84796875 -158.585625 154.4303125 -159 154 C-157.48887485 149.16801897 -154.74065887 146.07480407 -151.4375 142.375 C-150.35448816 141.13757629 -149.27246797 139.89928402 -148.19140625 138.66015625 C-147.38533936 137.74000732 -147.38533936 137.74000732 -146.56298828 136.80126953 C-142.15752175 131.72417924 -137.73020258 126.59530388 -134 121 C-130.71372121 122.38789444 -128.20540637 124.40228743 -125.484375 126.68139648 C-107.20495277 141.89623652 -85.71783358 148.54088339 -62 147 C-54.14623561 145.77650406 -48.04546325 143.36603833 -42.625 137.375 C-40.11808862 132.16833791 -39.98295062 127.28541233 -41.6953125 121.75390625 C-45.37359191 113.5782348 -51.3789359 110.58649262 -59.33007812 107.33129883 C-65.62593331 105.04741788 -72.09214204 103.45465107 -78.57794189 101.80654907 C-129.92211056 88.68359389 -129.92211056 88.68359389 -143.109375 67.6328125 C-151.98501728 51.4977096 -151.38776368 34.44532547 -147 17 C-141.95187772 1.06050766 -130.85392994 -10.50305375 -116.1730957 -18.24658203 C-79.59639095 -36.15037157 -29.95051772 -26.49739921 0 0 Z " fill="#132740" transform="translate(553,305)"/>
<path d="M0 0 C14.52 0 29.04 0 44 0 C44 55.11 44 110.22 44 167 C77.66 167 111.32 167 146 167 C146 180.53 146 194.06 146 208 C97.82 208 49.64 208 0 208 C0 139.36 0 70.72 0 0 Z " fill="#132740" transform="translate(240,282)"/>
<path d="M0 0 C4.46876455 3.07848225 8.07974831 6.73924494 9.8125 11.9375 C9.98046875 13.98828125 9.98046875 13.98828125 10 16.25 C10.01417969 16.98863281 10.02835938 17.72726563 10.04296875 18.48828125 C9.75906852 21.50532267 8.84847902 24.09981834 7.8125 26.9375 C26.26667358 38.35562356 26.26667358 38.35562356 46.8125 43.9375 C48.9430335 43.31889491 48.9430335 43.31889491 50.6875 42.125 C60.11318163 36.91654495 71.77848698 36.37240662 82.125 39.0625 C90.89869911 42.13400568 96.51769116 47.79078448 100.8125 55.9375 C105.41418253 66.99232327 106.66381154 78.17235361 102.06640625 89.43359375 C97.07906268 99.392744 88.01613374 104.37168741 77.85180664 107.96704102 C72.84615217 109.56536028 67.7515373 110.6768948 62.625 111.8125 C46.75295648 115.52559906 33.63695002 120.61819394 19.63964844 129.06298828 C18.78145508 129.57716309 17.92326172 130.09133789 17.0390625 130.62109375 C15.88784912 131.32576782 15.88784912 131.32576782 14.71337891 132.04467773 C14.08608887 132.33930908 13.45879883 132.63394043 12.8125 132.9375 C12.1525 132.6075 11.4925 132.2775 10.8125 131.9375 C13.474842 129.24568725 16.14316667 126.55987853 18.8125 123.875 C19.55628906 123.12283203 20.30007813 122.37066406 21.06640625 121.59570312 C25.27145605 117.3723705 29.55049428 113.31511831 34.0859375 109.44750977 C35.7346191 108.00561275 37.28296322 106.50427819 38.8125 104.9375 C32.12344227 109.78890451 25.64876101 114.80903431 19.375 120.1875 C18.79669434 120.68217773 18.21838867 121.17685547 17.62255859 121.68652344 C14.20602489 124.64163159 10.96815134 127.70516928 7.8125 130.9375 C6.4925 130.2775 5.1725 129.6175 3.8125 128.9375 C5.42598783 123.95123942 8.37692158 120.17407198 11.4375 116 C20.95256991 102.69285718 26.43744773 91.06265682 31.8125 74.9375 C18.6125 74.2775 5.4125 73.6175 -8.1875 72.9375 C-8.5175 70.6275 -8.8475 68.3175 -9.1875 65.9375 C-7.40022825 64.15022825 -4.70646398 64.36188451 -2.28125 64.03515625 C-1.06179688 63.86693359 0.15765625 63.69871094 1.4140625 63.52539062 C2.70054687 63.35201172 3.98703125 63.17863281 5.3125 63 C13.23293239 61.93066031 21.04076263 60.82130156 28.8125 58.9375 C23.89401807 52.23066206 18.42528521 46.18583779 12.70068359 40.16772461 C9.88683539 37.20210008 7.1528752 34.30390926 4.8125 30.9375 C4.049375 31.246875 3.28625 31.55625 2.5 31.875 C-3.63197803 34.29927039 -9.03426263 34.98857912 -15.375 32.875 C-19.84376455 29.79651775 -23.45474831 26.13575506 -25.1875 20.9375 C-25.96245324 14.49649524 -25.09246706 9.21577352 -21.1875 3.9375 C-14.66123973 -1.25687042 -7.9374607 -2.64582023 0 0 Z M42.8125 100.9375 C42.4825 101.5975 42.1525 102.2575 41.8125 102.9375 C42.8025 102.6075 43.7925 102.2775 44.8125 101.9375 C44.1525 101.6075 43.4925 101.2775 42.8125 100.9375 Z " fill="#BABDC3" transform="translate(786.1875,15.0625)"/>
<path d="M0 0 C5.75546202 3.58117637 8.67602848 6.11569369 10.8125 12.75 C11.56836826 18.68896489 10.11062268 22.89443049 6.8125 27.75 C3.29657345 31.74986026 0.0486262 33.05719779 -5.1875 33.75 C-4.12580578 55.44872489 -4.12580578 55.44872489 6.6328125 73.3046875 C7.64988281 74.14386719 7.64988281 74.14386719 8.6875 75 C15.73367946 80.9287816 20.32124365 89.28905727 21.1484375 98.484375 C21.4234928 110.57185975 19.11536478 119.08664327 11.23046875 128.48046875 C3.59388174 135.64825074 -5.87292844 138.16107913 -16.0859375 138.0234375 C-27.13943852 137.04894749 -35.97648596 132.80576827 -43.1875 124.42578125 C-48.88343178 116.86680512 -51.17365001 110.14417001 -51.38330078 100.69799805 C-51.75082538 85.79338577 -58.32613707 75.78987379 -68.1875 64.75 C-68.89003906 63.93917969 -69.59257813 63.12835938 -70.31640625 62.29296875 C-71.92794914 60.43399705 -73.55074069 58.58674919 -75.1875 56.75 C-76.24324219 56.98783203 -76.24324219 56.98783203 -77.3203125 57.23046875 C-83.45004977 58.34117046 -90.50139184 59.09113002 -96.1875 56.125 C-100.22959638 52.92500703 -102.56350307 49.90998937 -104 44.9375 C-104.061875 44.215625 -104.12375 43.49375 -104.1875 42.75 C-101.91701664 40.47951664 -96.47712395 41.31407032 -93.35498047 41.30786133 C-78.34419764 41.67983973 -65.04711549 49.52714203 -51.89111328 56.07885742 C-38.6756714 63.02597816 -38.6756714 63.02597816 -24.1875 64.75 C-19.05786077 54.20695426 -16.67714285 43.14311802 -14.1875 31.75 C-14.96609375 31.47027344 -15.7446875 31.19054687 -16.546875 30.90234375 C-19.85547707 29.45850113 -21.17031949 27.7037286 -23.1875 24.75 C-24.94553995 19.47588015 -25.22588787 13.68077699 -23.3515625 8.390625 C-18.4422445 -0.37366082 -9.40686985 -3.68896857 0 0 Z " fill="#132740" transform="translate(787.1875,141.25)"/>
<path d="M0 0 C15 0 15 0 20.1875 5 C21.53808594 6.74267578 21.53808594 6.74267578 22.546875 8.3203125 C24.7132054 11.5981725 27.02430787 14.72859927 29.40307617 17.85498047 C30.95110457 19.89290998 32.47892161 21.94478694 34.00390625 24 C37.60935563 28.83660668 41.34201884 33.56809887 45.08203125 38.30078125 C52.46306593 47.64124719 59.74905531 57.05829369 67 66.5 C73.30116398 74.69151317 79.65512186 82.84229953 86 91 C86.33 60.97 86.66 30.94 87 0 C91.95 0 96.9 0 102 0 C102 39.6 102 79.2 102 120 C87 120 87 120 81.8125 115 C80.46191406 113.25732422 80.46191406 113.25732422 79.453125 111.6796875 C77.2867946 108.4018275 74.97569213 105.27140073 72.59692383 102.14501953 C71.04889543 100.10709002 69.52107839 98.05521306 67.99609375 96 C64.39064437 91.16339332 60.65798116 86.43190113 56.91796875 81.69921875 C43.4192372 64.61700091 30.22465798 47.29378352 17 30 C16.67 59.7 16.34 89.4 16 120 C10.72 120 5.44 120 0 120 C0 80.4 0 40.8 0 0 Z " fill="#11233A" transform="translate(28,103)"/>
<path d="M0 0 C15 0 15 0 19.17578125 3.48046875 C20.27106338 5.01519135 21.31572531 6.58704487 22.3125 8.1875 C22.88677734 9.0125 23.46105469 9.8375 24.05273438 10.6875 C25.20581561 12.34432958 26.34064501 14.0140323 27.45556641 15.69677734 C29.50364692 18.75109153 31.72577947 21.60992203 34 24.5 C34.78375 25.5209375 35.5675 26.541875 36.375 27.59375 C39.56627991 31.74241389 42.78424136 35.87030247 46 40 C50.90299979 46.29718344 55.78931886 52.60640079 60.6484375 58.9375 C62.23393843 61.00233842 63.82255092 63.06479084 65.4140625 65.125 C72.0274246 73.69087854 78.50481522 82.33975362 85 91 C85.33 60.97 85.66 30.94 86 0 C90.95 0 95.9 0 101 0 C101 39.6 101 79.2 101 120 C86 120 86 120 81.82421875 116.51953125 C80.72893662 114.98480865 79.68427469 113.41295513 78.6875 111.8125 C77.82608398 110.575 77.82608398 110.575 76.94726562 109.3125 C75.79418439 107.65567042 74.65935499 105.9859677 73.54443359 104.30322266 C71.49635308 101.24890847 69.27422053 98.39007797 67 95.5 C65.824375 93.96859375 65.824375 93.96859375 64.625 92.40625 C61.43372025 88.25758632 58.215787 84.12967519 55 80 C50.18872293 73.82141556 45.39904845 67.6274724 40.6328125 61.4140625 C38.61872109 58.79527125 36.58897448 56.18906933 34.5546875 53.5859375 C33.94625 52.80669922 33.3378125 52.02746094 32.7109375 51.22460938 C31.5328206 49.71687041 30.35325883 48.21025867 29.171875 46.70507812 C24.63271506 40.89389778 20.34542609 34.97496087 16 29 C15.67 59.03 15.34 89.06 15 120 C10.05 120 5.1 120 0 120 C0 80.4 0 40.8 0 0 Z " fill="#11243B" transform="translate(284,103)"/>
<path d="M0 0 C11.03022621 6.38592044 15.95728344 16.38070523 21.35253906 27.46777344 C24.74784554 34.42377382 28.1733013 40.56797542 33.375 46.375 C34.24511719 47.35210937 35.11523438 48.32921875 36.01171875 49.3359375 C40.97159096 54.84349425 46.07501247 60.19278997 51.375 65.375 C52.179375 65.045 52.98375 64.715 53.8125 64.375 C59.72029209 62.7166724 64.97469789 62.45876091 70.6875 64.9375 C74.65583835 67.21415626 76.96569599 70.01896943 78.375 74.375 C79.42652362 79.39894617 79.86936168 83.73742695 78.375 88.6875 C75.15251938 93.01770834 71.55214273 96.64928576 66.375 98.375 C60.68514289 98.9385668 56.20591597 98.70296433 51.375 95.375 C47.77058327 91.79596648 44.57986078 88.59251928 44.2421875 83.2890625 C44.24476563 82.53367187 44.24734375 81.77828125 44.25 81 C44.24613281 79.87464844 44.24613281 79.87464844 44.2421875 78.7265625 C44.38488872 76.19991148 44.85797535 73.84922225 45.375 71.375 C26.87251188 57.68924788 26.87251188 57.68924788 5.53515625 51.8359375 C2.18269385 52.67253752 -0.56135414 53.74657753 -3.625 55.375 C-5.38887487 58.35103176 -5.38887487 58.35103176 -6.27734375 61.94140625 C-6.46720352 62.57610336 -6.65706329 63.21080048 -6.85267639 63.86473083 C-7.44913215 65.88235043 -8.0057085 67.9086202 -8.5625 69.9375 C-8.96168547 71.30477096 -9.36335407 72.67131955 -9.76757812 74.03710938 C-11.78331035 80.11250297 -11.78331035 80.11250297 -12.625 86.375 C-11.7175 86.973125 -10.81 87.57125 -9.875 88.1875 C-6.13333849 90.70592602 -3.64415083 93.33669835 -1.625 97.375 C-1.1177035 102.93031248 -0.86239578 107.79330236 -3.3125 112.875 C-10.06571624 120.17577432 -10.06571624 120.17577432 -15.234375 120.578125 C-26.21308682 120.74198637 -26.21308682 120.74198637 -30.625 117.375 C-32 114.6875 -32 114.6875 -32.625 112.375 C-33.285 112.375 -33.945 112.375 -34.625 112.375 C-37.06445148 106.92210845 -37.01770806 102.09052919 -35.625 96.375 C-33.72313186 92.29739471 -31.43181458 89.90715429 -27.6875 87.4375 C-24.44577707 86.31282062 -22.02521531 86.29460548 -18.625 86.375 C-18.5506161 81.90929551 -18.49628829 77.44392316 -18.46020508 72.9777832 C-18.44515647 71.45981562 -18.42471262 69.94189124 -18.39868164 68.42407227 C-18.36212347 66.23703323 -18.34523477 64.05057104 -18.33203125 61.86328125 C-18.3163208 60.54884033 -18.30061035 59.23439941 -18.28442383 57.88012695 C-18.70387471 53.56324071 -19.92883689 50.82474716 -23.23828125 47.99609375 C-23.79902344 47.60550781 -24.35976563 47.21492188 -24.9375 46.8125 C-30.54323566 42.25412047 -34.35094434 34.46724315 -35.625 27.375 C-36.34373751 18.59810927 -35.32383489 11.46180712 -30.4375 4.0625 C-21.79878523 -4.19227189 -10.79499654 -4.9823061 0 0 Z " fill="#247FB4" transform="translate(699.625,7.625)"/>
<path d="M0 0 C11.10579623 8.47501143 18.38289549 17.79004919 23.45703125 30.875 C23.77800781 31.679375 24.09898437 32.48375 24.4296875 33.3125 C29.73833829 49.11499538 27.11682749 67.86669722 19.89453125 82.5625 C11.47138266 96.84986596 -2.05454277 108.03351413 -17.93359375 112.91796875 C-35.05322442 117.00595231 -52.11990659 115.13247214 -67.66015625 106.76953125 C-81.6680637 97.56379261 -92.04839363 84.01794867 -96.41796875 67.75 C-99.72749426 51.18255492 -98.02888105 34.19426619 -89.29296875 19.49609375 C-79.66101473 5.06966262 -66.40284418 -5.78200328 -49.1953125 -9.61328125 C-31.56443631 -12.08348957 -14.89487596 -10.36165284 0 0 Z M-72.54296875 21.875 C-81.01808811 33.67338379 -84.04314974 45.52067387 -82.54296875 59.875 C-80.8874086 68.87218103 -77.37214462 75.87998895 -71.54296875 82.875 C-70.96933594 83.58398438 -70.39570313 84.29296875 -69.8046875 85.0234375 C-61.85228702 93.91241619 -49.94498098 99.03022685 -38.1953125 100.0859375 C-25.6710777 100.60199155 -14.08917553 96.07968106 -4.23046875 88.5 C4.88328483 79.59819417 11.55948589 67.77201018 11.83740234 54.82446289 C11.80217669 40.80945484 7.94145396 28.59236748 -1.79296875 18.125 C-12.64630319 7.94399601 -25.01947903 4.43076333 -39.52734375 4.66015625 C-52.64385165 5.15309691 -63.87078493 12.38576745 -72.54296875 21.875 Z " fill="#11233A" transform="translate(507.54296875,111.125)"/>
<path d="M0 0 C1.58206057 0.00667536 3.16410534 0.0186375 4.74609375 0.03515625 C5.55240234 0.03966797 6.35871094 0.04417969 7.18945312 0.04882812 C9.18753131 0.06065107 11.18557158 0.07858711 13.18359375 0.09765625 C13.48837646 0.80220947 13.79315918 1.5067627 14.10717773 2.23266602 C22.65007333 21.97579135 31.23369655 41.70096969 39.83477783 61.41880798 C42.52697331 67.59096315 45.21700854 73.76405725 47.90625 79.9375 C49.06301203 82.59262823 50.21979727 85.24774635 51.37658691 87.90286255 C52.11407732 89.59574923 52.85146593 91.28868026 53.58874512 92.98165894 C54.28562659 94.58182448 54.98269252 96.18190969 55.67996216 97.78190613 C56.32925716 99.27220026 56.9779424 100.76276024 57.62594604 102.25361633 C59.26755808 106.02468809 60.94707814 109.77417817 62.6640625 113.51171875 C64.18359375 117.09765625 64.18359375 117.09765625 64.18359375 120.09765625 C58.57359375 120.09765625 52.96359375 120.09765625 47.18359375 120.09765625 C42.54368637 111.23965126 39.04061447 102.46470657 35.18359375 93.09765625 C20.33359375 92.76765625 5.48359375 92.43765625 -9.81640625 92.09765625 C-4.81640625 76.09765625 -4.81640625 76.09765625 -3.81640625 75.09765625 C-1.52651844 74.93877533 0.76802816 74.84627552 3.0625 74.78125 C3.74916245 74.7604689 4.43582489 74.73968781 5.14329529 74.71827698 C7.3441231 74.65271482 9.5450735 74.5938661 11.74609375 74.53515625 C13.23503889 74.49197733 14.72397148 74.44836325 16.21289062 74.40429688 C19.86965928 74.29702695 23.52656693 74.19577853 27.18359375 74.09765625 C24.8542236 68.47829552 22.52470917 62.85899462 20.19506836 57.23974609 C19.40466534 55.33318651 18.61429988 53.42661135 17.82397461 51.52001953 C17.44184814 50.59817871 17.05972168 49.67633789 16.66601562 48.7265625 C16.09897415 47.35860535 16.09897415 47.35860535 15.52047729 45.9630127 C14.40970423 43.28429238 13.29789523 40.60600365 12.18603516 37.92773438 C10.96942776 34.99630557 9.75715761 32.06320762 8.55224609 29.12695312 C8.10445801 28.03962891 7.65666992 26.95230469 7.1953125 25.83203125 C6.82237061 24.92163086 6.44942871 24.01123047 6.06518555 23.07324219 C5.34249769 21.13736763 5.34249769 21.13736763 4.18359375 20.09765625 C-4.48811471 39.97636362 -13.01555958 59.91474011 -21.48339844 79.88110352 C-27.18647539 93.31945938 -32.97551591 106.71863526 -38.81640625 120.09765625 C-44.42640625 120.09765625 -50.03640625 120.09765625 -55.81640625 120.09765625 C-54.63777576 116.56176477 -53.54378418 113.29592822 -52.07080078 109.92382812 C-51.56611015 108.76319603 -51.56611015 108.76319603 -51.05122375 107.57911682 C-50.50573128 106.33532509 -50.50573128 106.33532509 -49.94921875 105.06640625 C-49.56231369 104.17851913 -49.17540863 103.29063202 -48.77677917 102.37583923 C-47.500665 99.44874967 -46.22100059 96.5232259 -44.94140625 93.59765625 C-44.04684257 91.54707701 -43.1525598 89.49637521 -42.25854492 87.44555664 C-40.39174677 83.16389753 -38.52372597 78.88277504 -36.65478516 74.60205078 C-32.56141074 65.22439048 -28.48008626 55.84149271 -24.40008545 46.45800781 C-23.16926577 43.62795581 -21.93750295 40.79831597 -20.70556641 37.96875 C-19.92600841 36.17712613 -19.14654706 34.3854602 -18.3671875 32.59375 C-17.99343994 31.73490204 -17.61969238 30.87605408 -17.23461914 29.99118042 C-15.23009544 25.37757259 -13.24158929 20.75760507 -11.27099609 16.12939453 C-10.85649704 15.15680191 -10.44199799 14.18420929 -10.01493835 13.18214417 C-9.21782473 11.30933105 -8.42282781 9.43561525 -7.63020325 7.56089783 C-7.27552475 6.72748367 -6.92084625 5.89406952 -6.55541992 5.03540039 C-6.08660652 3.92824425 -6.08660652 3.92824425 -5.60832214 2.79872131 C-4.11678993 -0.40514587 -4.0048678 0.10247871 0 0 Z " fill="#11243B" transform="translate(202.81640625,102.90234375)"/>
<path d="M0 0 C0.33 0 0.66 0 1 0 C1.23074219 1.25554687 1.46148438 2.51109375 1.69921875 3.8046875 C4.17848572 16.76549251 6.26135028 26.26830339 16.78125 34.9296875 C22.83129749 40.57497829 26.59876453 48.53975452 27.3359375 56.734375 C27.6109928 68.82185975 25.30286478 77.33664327 17.41796875 86.73046875 C10.49333402 93.23000474 1.85613066 96.15128127 -7.5 96.125 C-8.87671875 96.12886719 -8.87671875 96.12886719 -10.28125 96.1328125 C-12.95004454 96.00244035 -15.39865153 95.59378606 -18 95 C-17 93 -17 93 -15.109375 92.2890625 C-14.33078125 92.06992187 -13.5521875 91.85078125 -12.75 91.625 C-6.36174769 89.5528612 -3.38511741 87.06523662 -0.3125 81.0625 C0.48280766 79.38639559 1.25405954 77.69865038 2 76 C2.55494141 74.83210938 2.55494141 74.83210938 3.12109375 73.640625 C7.02557001 61.90984298 3.13009931 47.2778722 0.97265625 35.53125 C-1.1970946 23.59762033 -1.60601499 12.04511245 0 0 Z " fill="#838B95" transform="translate(781,183)"/>
<path d="M0 0 C4.46876455 3.07848225 8.07974831 6.73924494 9.8125 11.9375 C10.3760668 17.62735711 10.14046433 22.10658403 6.8125 26.9375 C2.4133792 31.36782024 -1.0744593 34.05432817 -7.5 34.1875 C-12.64111534 34.09599147 -16.1144603 32.99594083 -19.8515625 29.28515625 C-24.15878734 24.45739002 -25.55986803 20.83432983 -25.46484375 14.3515625 C-24.81888292 8.72897387 -22.50549562 4.98651693 -18.125 1.5 C-12.16650513 -1.66941217 -6.40825185 -2.13608395 0 0 Z " fill="#247FB5" transform="translate(786.1875,15.0625)"/>
<path d="M0 0 C4.24334986 2.2279898 6.70983704 5.07002237 8.79296875 9.31640625 C10.45592579 15.49801896 9.97310494 20.73593738 6.79296875 26.31640625 C3.32310252 30.40906898 0.37737354 33.00685359 -5.01171875 33.65234375 C-11.2457739 33.73165743 -15.41021211 33.75346396 -20.20703125 29.31640625 C-25.03809902 23.83249149 -25.55727868 20.51101226 -25.48828125 13.30078125 C-24.98641149 7.9753855 -22.45317749 5.41420175 -18.58203125 2.00390625 C-13.22728158 -1.80078431 -6.25529006 -1.93747922 0 0 Z " fill="#247FB5" transform="translate(846.20703125,165.68359375)"/>
<path d="M0 0 C10.46719654 -0.60130704 19.65529959 1.3997736 28 8 C34.73328567 14.09424699 37.86433727 22.10397528 39 31 C39.06522873 33.29083289 39.0858841 35.58335794 39.0625 37.875 C39.05347656 39.02742188 39.04445313 40.17984375 39.03515625 41.3671875 C39.02355469 42.23601563 39.01195312 43.10484375 39 44 C38.01 44 37.02 44 36 44 C35.75354736 43.410979 35.50709473 42.82195801 35.25317383 42.21508789 C34.11160021 39.49529208 32.96210151 36.7789118 31.8125 34.0625 C31.42513672 33.13630859 31.03777344 32.21011719 30.63867188 31.25585938 C24.94529079 17.84582956 19.53132747 8.79199204 5.640625 3.01953125 C3.77233419 2.31395334 1.88762572 1.65208888 0 1 C0 0.67 0 0.34 0 0 Z " fill="#CCCFDA" transform="translate(691,0)"/>
<path d="M0 0 C9.12712374 11.43483401 11.12105432 27.87471555 10 42 C8.84866782 49.60782242 4.73035399 54.99969111 -1 60 C-6.89118312 63.87879667 -12.06573695 64.44027067 -19 64 C-18 62 -18 62 -16.109375 61.2890625 C-15.33078125 61.06992187 -14.5521875 60.85078125 -13.75 60.625 C-7.36174769 58.5528612 -4.38511741 56.06523662 -1.3125 50.0625 C-0.51719234 48.38639559 0.25405954 46.69865038 1 45 C1.37125 44.22785156 1.7425 43.45570313 2.125 42.66015625 C3.25828753 39.21475977 3.3391416 35.96287392 3.3125 32.375 C3.31056641 31.28022339 3.31056641 31.28022339 3.30859375 30.16333008 C3.16979235 21.96277006 1.79132115 13.97164432 0.27539062 5.9284668 C0 4 0 4 0 0 Z " fill="#F3F4F5" transform="translate(782,214)"/>
<path d="M0 0 C0.66 0.33 1.32 0.66 2 1 C-1.63 4.63 -5.26 8.26 -9 12 C-9.66 11.67 -10.32 11.34 -11 11 C-7.6189962 6.86378916 -4.33409466 3.18683431 0 0 Z " fill="#0B1725" transform="translate(435,112)"/>
<path d="M0 0 C5.61 0 11.22 0 17 0 C16.67 0.66 16.34 1.32 16 2 C14.53626953 1.98259766 14.53626953 1.98259766 13.04296875 1.96484375 C11.77066406 1.95582031 10.49835938 1.94679688 9.1875 1.9375 C7.92292969 1.92589844 6.65835938 1.91429688 5.35546875 1.90234375 C2.00394763 1.83840884 2.00394763 1.83840884 -1 3 C-0.67 2.01 -0.34 1.02 0 0 Z " fill="#0C1A2B" transform="translate(199,103)"/>
<path d="M0 0 C0.33 0.66 0.66 1.32 1 2 C-1.97 2 -4.94 2 -8 2 C-7 0 -7 0 -5.125 -0.6875 C-3 -1 -3 -1 0 0 Z " fill="#E1E3E6" transform="translate(771,276)"/>
</svg>
